<svg width="100" height="17" viewBox="0 0 100 17" fill="none" xmlns="http://www.w3.org/2000/svg">
<path d="M0.264205 16V1.45455H3.33949V7.45597H9.58239V1.45455H12.6506V16H9.58239V9.99148H3.33949V16H0.264205ZM20.0582 16.2131C18.955 16.2131 18.0009 15.9787 17.196 15.5099C16.3958 15.0365 15.7779 14.3783 15.3423 13.5355C14.9067 12.688 14.6889 11.7055 14.6889 10.5881C14.6889 9.46117 14.9067 8.47633 15.3423 7.63352C15.7779 6.78598 16.3958 6.12784 17.196 5.65909C18.0009 5.18561 18.955 4.94886 20.0582 4.94886C21.1615 4.94886 22.1132 5.18561 22.9134 5.65909C23.7183 6.12784 24.3385 6.78598 24.7741 7.63352C25.2098 8.47633 25.4276 9.46117 25.4276 10.5881C25.4276 11.7055 25.2098 12.688 24.7741 13.5355C24.3385 14.3783 23.7183 15.0365 22.9134 15.5099C22.1132 15.9787 21.1615 16.2131 20.0582 16.2131ZM20.0724 13.8693C20.5743 13.8693 20.9934 13.7273 21.3295 13.4432C21.6657 13.1544 21.919 12.7614 22.0895 12.2642C22.2647 11.767 22.3523 11.2012 22.3523 10.5668C22.3523 9.93229 22.2647 9.36648 22.0895 8.86932C21.919 8.37216 21.6657 7.97917 21.3295 7.69034C20.9934 7.40151 20.5743 7.2571 20.0724 7.2571C19.5658 7.2571 19.1397 7.40151 18.794 7.69034C18.4531 7.97917 18.1951 8.37216 18.0199 8.86932C17.8494 9.36648 17.7642 9.93229 17.7642 10.5668C17.7642 11.2012 17.8494 11.767 18.0199 12.2642C18.1951 12.7614 18.4531 13.1544 18.794 13.4432C19.1397 13.7273 19.5658 13.8693 20.0724 13.8693ZM33.1974 5.09091V7.36364H26.6278V5.09091H33.1974ZM28.1193 2.47727H31.1449V12.6477C31.1449 12.9271 31.1875 13.1449 31.2727 13.3011C31.358 13.4527 31.4763 13.5592 31.6278 13.6207C31.7841 13.6823 31.964 13.7131 32.1676 13.7131C32.3097 13.7131 32.4517 13.7012 32.5938 13.6776C32.7358 13.6491 32.8447 13.6278 32.9205 13.6136L33.3963 15.8651C33.2448 15.9124 33.0317 15.9669 32.7571 16.0284C32.4825 16.0947 32.1487 16.1349 31.7557 16.1491C31.0265 16.1776 30.3873 16.0805 29.8381 15.858C29.2936 15.6354 28.8698 15.2898 28.5668 14.821C28.2637 14.3523 28.1146 13.7604 28.1193 13.0455V2.47727ZM48.0589 6.54688H44.9482C44.8913 6.14441 44.7753 5.78693 44.6001 5.47443C44.425 5.1572 44.2 4.88731 43.9254 4.66477C43.6508 4.44223 43.3336 4.27178 42.9737 4.15341C42.6186 4.03504 42.2327 3.97585 41.8161 3.97585C41.0632 3.97585 40.4074 4.16288 39.8487 4.53693C39.29 4.90625 38.8568 5.44602 38.549 6.15625C38.2412 6.86174 38.0874 7.71875 38.0874 8.72727C38.0874 9.7642 38.2412 10.6354 38.549 11.3409C38.8615 12.0464 39.2971 12.5791 39.8558 12.9389C40.4145 13.2988 41.0608 13.4787 41.7947 13.4787C42.2067 13.4787 42.5878 13.4242 42.9382 13.3153C43.2933 13.2064 43.6082 13.0478 43.8828 12.8395C44.1574 12.6264 44.3847 12.3684 44.5646 12.0653C44.7493 11.7623 44.8771 11.4167 44.9482 11.0284L48.0589 11.0426C47.9785 11.7102 47.7772 12.3542 47.4553 12.9744C47.138 13.59 46.7095 14.1416 46.1697 14.6293C45.6347 15.1122 44.9955 15.4957 44.2521 15.7798C43.5135 16.0592 42.6778 16.1989 41.745 16.1989C40.4477 16.1989 39.2876 15.9053 38.2649 15.3182C37.2469 14.7311 36.442 13.8812 35.8501 12.7685C35.263 11.6558 34.9695 10.3087 34.9695 8.72727C34.9695 7.1411 35.2678 5.79167 35.8643 4.67898C36.4609 3.56629 37.2706 2.71875 38.2933 2.13636C39.3161 1.54924 40.4666 1.25568 41.745 1.25568C42.5878 1.25568 43.3691 1.37405 44.0888 1.6108C44.8132 1.84754 45.4548 2.19318 46.0135 2.64773C46.5722 3.09754 47.0268 3.64915 47.3771 4.30256C47.7322 4.95597 47.9595 5.70407 48.0589 6.54688ZM55.1364 16.2131C54.0331 16.2131 53.0791 15.9787 52.2741 15.5099C51.474 15.0365 50.8561 14.3783 50.4205 13.5355C49.9848 12.688 49.767 11.7055 49.767 10.5881C49.767 9.46117 49.9848 8.47633 50.4205 7.63352C50.8561 6.78598 51.474 6.12784 52.2741 5.65909C53.0791 5.18561 54.0331 4.94886 55.1364 4.94886C56.2396 4.94886 57.1913 5.18561 57.9915 5.65909C58.7964 6.12784 59.4167 6.78598 59.8523 7.63352C60.2879 8.47633 60.5057 9.46117 60.5057 10.5881C60.5057 11.7055 60.2879 12.688 59.8523 13.5355C59.4167 14.3783 58.7964 15.0365 57.9915 15.5099C57.1913 15.9787 56.2396 16.2131 55.1364 16.2131ZM55.1506 13.8693C55.6525 13.8693 56.0715 13.7273 56.4077 13.4432C56.7438 13.1544 56.9972 12.7614 57.1676 12.2642C57.3428 11.767 57.4304 11.2012 57.4304 10.5668C57.4304 9.93229 57.3428 9.36648 57.1676 8.86932C56.9972 8.37216 56.7438 7.97917 56.4077 7.69034C56.0715 7.40151 55.6525 7.2571 55.1506 7.2571C54.6439 7.2571 54.2178 7.40151 53.8722 7.69034C53.5313 7.97917 53.2732 8.37216 53.098 8.86932C52.9276 9.36648 52.8423 9.93229 52.8423 10.5668C52.8423 11.2012 52.9276 11.767 53.098 12.2642C53.2732 12.7614 53.5313 13.1544 53.8722 13.4432C54.2178 13.7273 54.6439 13.8693 55.1506 13.8693ZM68.3395 5.09091V7.36364H61.6065V5.09091H68.3395ZM63.1477 16V4.30256C63.1477 3.51184 63.3016 2.85606 63.6094 2.33523C63.9219 1.81439 64.348 1.42377 64.8878 1.16335C65.4276 0.902935 66.0407 0.772726 66.7273 0.772726C67.1913 0.772726 67.6151 0.808238 67.9986 0.879261C68.3868 0.950284 68.6757 1.0142 68.8651 1.07102L68.3253 3.34375C68.2069 3.30587 68.0601 3.27036 67.8849 3.23722C67.7145 3.20407 67.5393 3.1875 67.3594 3.1875C66.9143 3.1875 66.6042 3.29167 66.429 3.5C66.2538 3.7036 66.1662 3.99006 66.1662 4.35938V16H63.1477ZM76.0543 5.09091V7.36364H69.3214V5.09091H76.0543ZM70.8626 16V4.30256C70.8626 3.51184 71.0165 2.85606 71.3242 2.33523C71.6367 1.81439 72.0629 1.42377 72.6026 1.16335C73.1424 0.902935 73.7556 0.772726 74.4421 0.772726C74.9061 0.772726 75.3299 0.808238 75.7134 0.879261C76.1017 0.950284 76.3905 1.0142 76.5799 1.07102L76.0401 3.34375C75.9218 3.30587 75.775 3.27036 75.5998 3.23722C75.4293 3.20407 75.2541 3.1875 75.0742 3.1875C74.6291 3.1875 74.319 3.29167 74.1438 3.5C73.9686 3.7036 73.881 3.99006 73.881 4.35938V16H70.8626ZM82.4837 16.2131C81.3615 16.2131 80.3956 15.9858 79.5859 15.5312C78.781 15.072 78.1607 14.4233 77.7251 13.5852C77.2895 12.7424 77.0717 11.7457 77.0717 10.5952C77.0717 9.47301 77.2895 8.48816 77.7251 7.64062C78.1607 6.79309 78.7739 6.13258 79.5646 5.65909C80.3601 5.18561 81.2929 4.94886 82.3629 4.94886C83.0826 4.94886 83.7526 5.06487 84.3729 5.29688C84.9979 5.52415 85.5424 5.86742 86.0064 6.3267C86.4751 6.78598 86.8397 7.36364 87.1001 8.05966C87.3606 8.75095 87.4908 9.56061 87.4908 10.4886V11.3196H78.2791V9.4446H84.6428C84.6428 9.009 84.5481 8.62311 84.3587 8.28693C84.1693 7.95076 83.9065 7.68797 83.5703 7.49858C83.2389 7.30445 82.853 7.20739 82.4126 7.20739C81.9534 7.20739 81.5462 7.31392 81.1911 7.52699C80.8407 7.73532 80.5661 8.01705 80.3672 8.37216C80.1683 8.72254 80.0665 9.11316 80.0618 9.54403V11.3267C80.0618 11.8665 80.1612 12.3329 80.3601 12.7259C80.5637 13.1188 80.8501 13.4219 81.2195 13.6349C81.5888 13.848 82.0268 13.9545 82.5334 13.9545C82.8696 13.9545 83.1773 13.9072 83.4567 13.8125C83.736 13.7178 83.9751 13.5758 84.174 13.3864C84.3729 13.197 84.5244 12.965 84.6286 12.6903L87.4268 12.875C87.2848 13.5473 86.9936 14.1345 86.5533 14.6364C86.1177 15.1335 85.5542 15.5218 84.8629 15.8011C84.1764 16.0758 83.3833 16.2131 82.4837 16.2131ZM94.4368 16.2131C93.3146 16.2131 92.3487 15.9858 91.5391 15.5312C90.7341 15.072 90.1139 14.4233 89.6783 13.5852C89.2427 12.7424 89.0249 11.7457 89.0249 10.5952C89.0249 9.47301 89.2427 8.48816 89.6783 7.64062C90.1139 6.79309 90.727 6.13258 91.5178 5.65909C92.3132 5.18561 93.246 4.94886 94.3161 4.94886C95.0357 4.94886 95.7057 5.06487 96.326 5.29688C96.951 5.52415 97.4955 5.86742 97.9595 6.3267C98.4283 6.78598 98.7929 7.36364 99.0533 8.05966C99.3137 8.75095 99.4439 9.56061 99.4439 10.4886V11.3196H90.2322V9.4446H96.5959C96.5959 9.009 96.5012 8.62311 96.3118 8.28693C96.1224 7.95076 95.8596 7.68797 95.5234 7.49858C95.192 7.30445 94.8061 7.20739 94.3658 7.20739C93.9065 7.20739 93.4993 7.31392 93.1442 7.52699C92.7938 7.73532 92.5192 8.01705 92.3203 8.37216C92.1214 8.72254 92.0196 9.11316 92.0149 9.54403V11.3267C92.0149 11.8665 92.1143 12.3329 92.3132 12.7259C92.5168 13.1188 92.8033 13.4219 93.1726 13.6349C93.5419 13.848 93.9799 13.9545 94.4865 13.9545C94.8227 13.9545 95.1304 13.9072 95.4098 13.8125C95.6892 13.7178 95.9283 13.5758 96.1271 13.3864C96.326 13.197 96.4775 12.965 96.5817 12.6903L99.38 12.875C99.2379 13.5473 98.9467 14.1345 98.5064 14.6364C98.0708 15.1335 97.5073 15.5218 96.8161 15.8011C96.1295 16.0758 95.3364 16.2131 94.4368 16.2131Z" fill="black"/>
</svg>
